<mxfile host="app.diagrams.net" modified="2024-05-11T15:32:03.401Z" agent="Mozilla/5.0 (Windows NT 10.0; Win64; x64) AppleWebKit/537.36 (KHTML, like Gecko) Chrome/123.0.0.0 Safari/537.36" etag="LAcJT04qM3jX-TNs7iaT" version="24.4.0" type="device" pages="3">
  <diagram name="Project Flow" id="cx3ssBFWSSu0u48Jn4JK">
    <mxGraphModel dx="1290" dy="557" grid="1" gridSize="10" guides="1" tooltips="1" connect="1" arrows="1" fold="1" page="1" pageScale="1" pageWidth="850" pageHeight="1100" math="0" shadow="0">
      <root>
        <mxCell id="0" />
        <mxCell id="1" parent="0" />
        <mxCell id="BW7U8CMGYMV97pccI4in-11" style="edgeStyle=orthogonalEdgeStyle;rounded=0;orthogonalLoop=1;jettySize=auto;html=1;entryX=0.5;entryY=0;entryDx=0;entryDy=0;" edge="1" parent="1" source="BW7U8CMGYMV97pccI4in-2" target="BW7U8CMGYMV97pccI4in-5">
          <mxGeometry relative="1" as="geometry" />
        </mxCell>
        <mxCell id="BW7U8CMGYMV97pccI4in-2" value="User types text into input field" style="rounded=1;whiteSpace=wrap;html=1;" vertex="1" parent="1">
          <mxGeometry x="305" y="30" width="120" height="60" as="geometry" />
        </mxCell>
        <mxCell id="BW7U8CMGYMV97pccI4in-5" value="User submits data on click or press enter" style="rounded=1;whiteSpace=wrap;html=1;" vertex="1" parent="1">
          <mxGeometry x="305" y="140" width="120" height="60" as="geometry" />
        </mxCell>
        <mxCell id="BW7U8CMGYMV97pccI4in-6" value="" style="endArrow=classic;html=1;rounded=0;exitX=0.5;exitY=1;exitDx=0;exitDy=0;" edge="1" parent="1" source="BW7U8CMGYMV97pccI4in-5">
          <mxGeometry width="50" height="50" relative="1" as="geometry">
            <mxPoint x="400" y="320" as="sourcePoint" />
            <mxPoint x="365" y="310" as="targetPoint" />
          </mxGeometry>
        </mxCell>
        <mxCell id="BW7U8CMGYMV97pccI4in-10" style="edgeStyle=orthogonalEdgeStyle;rounded=0;orthogonalLoop=1;jettySize=auto;html=1;" edge="1" parent="1" source="BW7U8CMGYMV97pccI4in-7" target="BW7U8CMGYMV97pccI4in-9">
          <mxGeometry relative="1" as="geometry" />
        </mxCell>
        <mxCell id="BW7U8CMGYMV97pccI4in-7" value="Detect when submit is clicked/enter is pressed" style="rounded=1;whiteSpace=wrap;html=1;" vertex="1" parent="1">
          <mxGeometry x="305" y="250" width="120" height="60" as="geometry" />
        </mxCell>
        <mxCell id="BW7U8CMGYMV97pccI4in-13" style="edgeStyle=orthogonalEdgeStyle;rounded=0;orthogonalLoop=1;jettySize=auto;html=1;entryX=0.5;entryY=0;entryDx=0;entryDy=0;" edge="1" parent="1" source="BW7U8CMGYMV97pccI4in-9" target="BW7U8CMGYMV97pccI4in-12">
          <mxGeometry relative="1" as="geometry" />
        </mxCell>
        <mxCell id="BW7U8CMGYMV97pccI4in-9" value="Grab user input" style="rounded=1;whiteSpace=wrap;html=1;" vertex="1" parent="1">
          <mxGeometry x="305" y="360" width="120" height="60" as="geometry" />
        </mxCell>
        <mxCell id="BW7U8CMGYMV97pccI4in-15" style="edgeStyle=orthogonalEdgeStyle;rounded=0;orthogonalLoop=1;jettySize=auto;html=1;entryX=0.5;entryY=0;entryDx=0;entryDy=0;" edge="1" parent="1" source="BW7U8CMGYMV97pccI4in-12" target="BW7U8CMGYMV97pccI4in-14">
          <mxGeometry relative="1" as="geometry" />
        </mxCell>
        <mxCell id="BW7U8CMGYMV97pccI4in-12" value="Send user input through API call" style="rounded=1;whiteSpace=wrap;html=1;" vertex="1" parent="1">
          <mxGeometry x="305" y="470" width="120" height="60" as="geometry" />
        </mxCell>
        <mxCell id="BW7U8CMGYMV97pccI4in-17" style="edgeStyle=orthogonalEdgeStyle;rounded=0;orthogonalLoop=1;jettySize=auto;html=1;" edge="1" parent="1" source="BW7U8CMGYMV97pccI4in-14" target="BW7U8CMGYMV97pccI4in-16">
          <mxGeometry relative="1" as="geometry" />
        </mxCell>
        <mxCell id="BW7U8CMGYMV97pccI4in-14" value="Parse through the response" style="rounded=1;whiteSpace=wrap;html=1;" vertex="1" parent="1">
          <mxGeometry x="305" y="580" width="120" height="60" as="geometry" />
        </mxCell>
        <mxCell id="BW7U8CMGYMV97pccI4in-16" value="Display data on page" style="rounded=1;whiteSpace=wrap;html=1;" vertex="1" parent="1">
          <mxGeometry x="305" y="690" width="120" height="60" as="geometry" />
        </mxCell>
      </root>
    </mxGraphModel>
  </diagram>
  <diagram id="c9zCa0Aavq2Gz5WSwoaz" name="Web Page">
    <mxGraphModel dx="1290" dy="2757" grid="1" gridSize="10" guides="1" tooltips="1" connect="1" arrows="1" fold="1" page="1" pageScale="1" pageWidth="850" pageHeight="1100" math="0" shadow="0">
      <root>
        <mxCell id="0" />
        <mxCell id="1" parent="0" />
        <mxCell id="QMBhkDxtdTfmgcGMlUUc-9" value="" style="rounded=1;whiteSpace=wrap;html=1;" vertex="1" parent="1">
          <mxGeometry x="40" y="-2030" width="1010" height="1320" as="geometry" />
        </mxCell>
        <mxCell id="QMBhkDxtdTfmgcGMlUUc-1" value="" style="rounded=1;whiteSpace=wrap;html=1;" vertex="1" parent="1">
          <mxGeometry x="40" y="-2150" width="1010" height="100" as="geometry" />
        </mxCell>
        <mxCell id="QMBhkDxtdTfmgcGMlUUc-3" value="WJB Movie Search" style="rounded=1;whiteSpace=wrap;html=1;" vertex="1" parent="1">
          <mxGeometry x="50" y="-2130" width="120" height="60" as="geometry" />
        </mxCell>
        <mxCell id="QMBhkDxtdTfmgcGMlUUc-4" value="Search" style="rounded=1;whiteSpace=wrap;html=1;" vertex="1" parent="1">
          <mxGeometry x="210" y="-1950" width="170" height="40" as="geometry" />
        </mxCell>
        <mxCell id="QMBhkDxtdTfmgcGMlUUc-5" value="Submit" style="rounded=1;whiteSpace=wrap;html=1;" vertex="1" parent="1">
          <mxGeometry x="400" y="-1950" width="50" height="40" as="geometry" />
        </mxCell>
        <mxCell id="QMBhkDxtdTfmgcGMlUUc-6" value="Sign Up" style="rounded=1;whiteSpace=wrap;html=1;" vertex="1" parent="1">
          <mxGeometry x="630" y="-2120" width="100" height="40" as="geometry" />
        </mxCell>
        <mxCell id="QMBhkDxtdTfmgcGMlUUc-7" value="Get the App" style="rounded=1;whiteSpace=wrap;html=1;" vertex="1" parent="1">
          <mxGeometry x="740" y="-2120" width="100" height="40" as="geometry" />
        </mxCell>
        <mxCell id="QMBhkDxtdTfmgcGMlUUc-8" value="Log In" style="rounded=1;whiteSpace=wrap;html=1;" vertex="1" parent="1">
          <mxGeometry x="850" y="-2120" width="100" height="40" as="geometry" />
        </mxCell>
        <mxCell id="QMBhkDxtdTfmgcGMlUUc-11" value="" style="rounded=1;whiteSpace=wrap;html=1;" vertex="1" parent="1">
          <mxGeometry x="70" y="-1520" width="120" height="160" as="geometry" />
        </mxCell>
        <mxCell id="QMBhkDxtdTfmgcGMlUUc-13" value="" style="rounded=1;whiteSpace=wrap;html=1;" vertex="1" parent="1">
          <mxGeometry x="280" y="-1520" width="120" height="160" as="geometry" />
        </mxCell>
        <mxCell id="QMBhkDxtdTfmgcGMlUUc-14" value="" style="rounded=1;whiteSpace=wrap;html=1;" vertex="1" parent="1">
          <mxGeometry x="690" y="-1525" width="120" height="160" as="geometry" />
        </mxCell>
        <mxCell id="QMBhkDxtdTfmgcGMlUUc-15" value="" style="rounded=1;whiteSpace=wrap;html=1;" vertex="1" parent="1">
          <mxGeometry x="485" y="-1525" width="120" height="160" as="geometry" />
        </mxCell>
        <mxCell id="QMBhkDxtdTfmgcGMlUUc-34" style="edgeStyle=orthogonalEdgeStyle;rounded=0;orthogonalLoop=1;jettySize=auto;html=1;" edge="1" parent="1" source="QMBhkDxtdTfmgcGMlUUc-16" target="QMBhkDxtdTfmgcGMlUUc-35">
          <mxGeometry relative="1" as="geometry">
            <mxPoint x="1130" y="-1520" as="targetPoint" />
          </mxGeometry>
        </mxCell>
        <mxCell id="QMBhkDxtdTfmgcGMlUUc-16" value="" style="rounded=1;whiteSpace=wrap;html=1;" vertex="1" parent="1">
          <mxGeometry x="900" y="-1520" width="120" height="160" as="geometry" />
        </mxCell>
        <mxCell id="QMBhkDxtdTfmgcGMlUUc-17" value="" style="rounded=1;whiteSpace=wrap;html=1;" vertex="1" parent="1">
          <mxGeometry x="70" y="-1295" width="120" height="160" as="geometry" />
        </mxCell>
        <mxCell id="QMBhkDxtdTfmgcGMlUUc-18" value="" style="rounded=1;whiteSpace=wrap;html=1;" vertex="1" parent="1">
          <mxGeometry x="280" y="-1295" width="120" height="160" as="geometry" />
        </mxCell>
        <mxCell id="QMBhkDxtdTfmgcGMlUUc-19" value="" style="rounded=1;whiteSpace=wrap;html=1;" vertex="1" parent="1">
          <mxGeometry x="690" y="-1300" width="120" height="160" as="geometry" />
        </mxCell>
        <mxCell id="QMBhkDxtdTfmgcGMlUUc-20" value="" style="rounded=1;whiteSpace=wrap;html=1;" vertex="1" parent="1">
          <mxGeometry x="485" y="-1300" width="120" height="160" as="geometry" />
        </mxCell>
        <mxCell id="QMBhkDxtdTfmgcGMlUUc-21" value="" style="rounded=1;whiteSpace=wrap;html=1;" vertex="1" parent="1">
          <mxGeometry x="900" y="-1295" width="120" height="160" as="geometry" />
        </mxCell>
        <mxCell id="QMBhkDxtdTfmgcGMlUUc-22" value="" style="rounded=1;whiteSpace=wrap;html=1;" vertex="1" parent="1">
          <mxGeometry x="70" y="-1095" width="120" height="160" as="geometry" />
        </mxCell>
        <mxCell id="QMBhkDxtdTfmgcGMlUUc-23" value="" style="rounded=1;whiteSpace=wrap;html=1;" vertex="1" parent="1">
          <mxGeometry x="280" y="-1095" width="120" height="160" as="geometry" />
        </mxCell>
        <mxCell id="QMBhkDxtdTfmgcGMlUUc-24" value="" style="rounded=1;whiteSpace=wrap;html=1;" vertex="1" parent="1">
          <mxGeometry x="690" y="-1100" width="120" height="160" as="geometry" />
        </mxCell>
        <mxCell id="QMBhkDxtdTfmgcGMlUUc-25" value="" style="rounded=1;whiteSpace=wrap;html=1;" vertex="1" parent="1">
          <mxGeometry x="485" y="-1100" width="120" height="160" as="geometry" />
        </mxCell>
        <mxCell id="QMBhkDxtdTfmgcGMlUUc-26" value="" style="rounded=1;whiteSpace=wrap;html=1;" vertex="1" parent="1">
          <mxGeometry x="900" y="-1095" width="120" height="160" as="geometry" />
        </mxCell>
        <mxCell id="QMBhkDxtdTfmgcGMlUUc-35" value="For all movies on hover, show the rating of the movie" style="rounded=1;whiteSpace=wrap;html=1;" vertex="1" parent="1">
          <mxGeometry x="1070" y="-1550" width="120" height="60" as="geometry" />
        </mxCell>
        <mxCell id="nJuQpacXRZgUWR_icZP4-1" value="Movie Search" style="rounded=1;whiteSpace=wrap;html=1;" vertex="1" parent="1">
          <mxGeometry x="235" y="-2020" width="120" height="60" as="geometry" />
        </mxCell>
        <mxCell id="nJuQpacXRZgUWR_icZP4-2" value="Number" style="rounded=1;whiteSpace=wrap;html=1;" vertex="1" parent="1">
          <mxGeometry x="690" y="-1940" width="170" height="40" as="geometry" />
        </mxCell>
        <mxCell id="nJuQpacXRZgUWR_icZP4-3" value="Number of Movies" style="rounded=1;whiteSpace=wrap;html=1;" vertex="1" parent="1">
          <mxGeometry x="715" y="-2010" width="120" height="60" as="geometry" />
        </mxCell>
      </root>
    </mxGraphModel>
  </diagram>
  <diagram id="zDyAb2sFWrs3as-8kdVw" name="Phone Page">
    <mxGraphModel dx="1290" dy="557" grid="1" gridSize="10" guides="1" tooltips="1" connect="1" arrows="1" fold="1" page="1" pageScale="1" pageWidth="850" pageHeight="1100" math="0" shadow="0">
      <root>
        <mxCell id="0" />
        <mxCell id="1" parent="0" />
        <mxCell id="De1kLD3xzyO03MhEj9mF-1" value="" style="rounded=1;whiteSpace=wrap;html=1;" vertex="1" parent="1">
          <mxGeometry x="10" y="330" width="820" height="1380" as="geometry" />
        </mxCell>
        <mxCell id="FQ39LK0l96s27YfUMfNf-2" value="" style="rounded=1;whiteSpace=wrap;html=1;" vertex="1" parent="1">
          <mxGeometry x="20" y="10" width="820" height="280" as="geometry" />
        </mxCell>
        <mxCell id="FQ39LK0l96s27YfUMfNf-1" value="Menu Button" style="rounded=1;whiteSpace=wrap;html=1;" vertex="1" parent="1">
          <mxGeometry x="700" y="20" width="120" height="60" as="geometry" />
        </mxCell>
        <mxCell id="pwh9l7vT2FUyI1oGe5Q9-1" value="WJB Search Engine" style="rounded=1;whiteSpace=wrap;html=1;" vertex="1" parent="1">
          <mxGeometry x="310" y="100" width="230" height="60" as="geometry" />
        </mxCell>
        <mxCell id="Wdidr1PVv1wkpp27ptK9-1" value="Search" style="rounded=1;whiteSpace=wrap;html=1;" vertex="1" parent="1">
          <mxGeometry x="260" y="400" width="210" height="30" as="geometry" />
        </mxCell>
        <mxCell id="KJtAsRxWCSQh0W1c2s5c-1" value="Submit" style="rounded=1;whiteSpace=wrap;html=1;" vertex="1" parent="1">
          <mxGeometry x="490" y="400" width="40" height="30" as="geometry" />
        </mxCell>
        <mxCell id="nxpUzFmSPzmDoX7TfZ_q-1" value="Sign Up" style="rounded=1;whiteSpace=wrap;html=1;" vertex="1" parent="1">
          <mxGeometry x="365" y="180" width="120" height="20" as="geometry" />
        </mxCell>
        <mxCell id="nxpUzFmSPzmDoX7TfZ_q-2" value="Get the app" style="rounded=1;whiteSpace=wrap;html=1;" vertex="1" parent="1">
          <mxGeometry x="365" y="210" width="120" height="20" as="geometry" />
        </mxCell>
        <mxCell id="nxpUzFmSPzmDoX7TfZ_q-3" value="Log In" style="rounded=1;whiteSpace=wrap;html=1;" vertex="1" parent="1">
          <mxGeometry x="365" y="240" width="120" height="20" as="geometry" />
        </mxCell>
        <mxCell id="ujtPNrUtvrqBgjZaCH4s-1" value="Movie Search:" style="rounded=1;whiteSpace=wrap;html=1;" vertex="1" parent="1">
          <mxGeometry x="360" y="360" width="120" height="30" as="geometry" />
        </mxCell>
        <mxCell id="ujtPNrUtvrqBgjZaCH4s-2" value="Number of Movies" style="rounded=1;whiteSpace=wrap;html=1;" vertex="1" parent="1">
          <mxGeometry x="360" y="470" width="120" height="30" as="geometry" />
        </mxCell>
        <mxCell id="_7u_Myp9pZ8T7EwFQ-CD-1" value="Number" style="rounded=1;whiteSpace=wrap;html=1;" vertex="1" parent="1">
          <mxGeometry x="360" y="520" width="120" height="30" as="geometry" />
        </mxCell>
        <mxCell id="YJKEHxObV2g98au2bHJT-1" value="" style="rounded=1;whiteSpace=wrap;html=1;" vertex="1" parent="1">
          <mxGeometry x="310" y="580" width="230" height="320" as="geometry" />
        </mxCell>
        <mxCell id="YJKEHxObV2g98au2bHJT-2" value="" style="rounded=1;whiteSpace=wrap;html=1;" vertex="1" parent="1">
          <mxGeometry x="305" y="940" width="230" height="320" as="geometry" />
        </mxCell>
        <mxCell id="YJKEHxObV2g98au2bHJT-3" value="" style="rounded=1;whiteSpace=wrap;html=1;" vertex="1" parent="1">
          <mxGeometry x="305" y="1300" width="230" height="320" as="geometry" />
        </mxCell>
      </root>
    </mxGraphModel>
  </diagram>
</mxfile>
